<svg xmlns="http://www.w3.org/2000/svg" viewBox="0 0 480 480" width="480" height="480">
  <rect x="0" y="0" width="480" height="480" fill="white"/>
  <text x="240" y="16" text-anchor="middle" font-size="14" font-family="sans-serif" fill="black">
    Order 3 Walking Pattern (8×8 = 64 points)
  </text>
  <path d="M 210 270 L 210 330 L 150 390 L 210 390 L 210 450 L 150 450 L 90 390 L 90 450 L 30 450 L 30 390 L 90 330 L 30 330 L 30 270 L 90 270 L 150 330 L 150 270 L 210 210 L 150 210 L 90 150 L 90 210 L 30 210 L 30 150 L 90 90 L 30 90 L 30 30 L 90 30 L 150 90 L 150 30 L 210 30 L 210 90 L 150 150 L 210 150 L 270 210 L 270 150 L 330 90 L 270 90 L 270 30 L 330 30 L 390 90 L 390 30 L 450 30 L 450 90 L 390 150 L 450 150 L 450 210 L 390 210 L 330 150 L 330 210 L 270 270 L 330 270 L 390 330 L 390 270 L 450 270 L 450 330 L 390 390 L 450 390 L 450 450 L 390 450 L 330 390 L 330 450 L 270 450 L 270 390 L 330 330 L 270 330 L 210 270" fill="none" stroke="black" stroke-width="1.5" stroke-linejoin="round"/>
  <circle cx="30" cy="30" r="3" fill="#ddd"/>
  <circle cx="30" cy="90" r="3" fill="#ddd"/>
  <circle cx="30" cy="150" r="3" fill="#ddd"/>
  <circle cx="30" cy="210" r="3" fill="#ddd"/>
  <circle cx="30" cy="270" r="3" fill="#ddd"/>
  <circle cx="30" cy="330" r="3" fill="#ddd"/>
  <circle cx="30" cy="390" r="3" fill="#ddd"/>
  <circle cx="30" cy="450" r="3" fill="#ddd"/>
  <circle cx="90" cy="30" r="3" fill="#ddd"/>
  <circle cx="90" cy="90" r="3" fill="#ddd"/>
  <circle cx="90" cy="150" r="3" fill="#ddd"/>
  <circle cx="90" cy="210" r="3" fill="#ddd"/>
  <circle cx="90" cy="270" r="3" fill="#ddd"/>
  <circle cx="90" cy="330" r="3" fill="#ddd"/>
  <circle cx="90" cy="390" r="3" fill="#ddd"/>
  <circle cx="90" cy="450" r="3" fill="#ddd"/>
  <circle cx="150" cy="30" r="3" fill="#ddd"/>
  <circle cx="150" cy="90" r="3" fill="#ddd"/>
  <circle cx="150" cy="150" r="3" fill="#ddd"/>
  <circle cx="150" cy="210" r="3" fill="#ddd"/>
  <circle cx="150" cy="270" r="3" fill="#ddd"/>
  <circle cx="150" cy="330" r="3" fill="#ddd"/>
  <circle cx="150" cy="390" r="3" fill="#ddd"/>
  <circle cx="150" cy="450" r="3" fill="#ddd"/>
  <circle cx="210" cy="30" r="3" fill="#ddd"/>
  <circle cx="210" cy="90" r="3" fill="#ddd"/>
  <circle cx="210" cy="150" r="3" fill="#ddd"/>
  <circle cx="210" cy="210" r="3" fill="#ddd"/>
  <circle cx="210" cy="270" r="3" fill="#ddd"/>
  <circle cx="210" cy="330" r="3" fill="#ddd"/>
  <circle cx="210" cy="390" r="3" fill="#ddd"/>
  <circle cx="210" cy="450" r="3" fill="#ddd"/>
  <circle cx="270" cy="30" r="3" fill="#ddd"/>
  <circle cx="270" cy="90" r="3" fill="#ddd"/>
  <circle cx="270" cy="150" r="3" fill="#ddd"/>
  <circle cx="270" cy="210" r="3" fill="#ddd"/>
  <circle cx="270" cy="270" r="3" fill="#ddd"/>
  <circle cx="270" cy="330" r="3" fill="#ddd"/>
  <circle cx="270" cy="390" r="3" fill="#ddd"/>
  <circle cx="270" cy="450" r="3" fill="#ddd"/>
  <circle cx="330" cy="30" r="3" fill="#ddd"/>
  <circle cx="330" cy="90" r="3" fill="#ddd"/>
  <circle cx="330" cy="150" r="3" fill="#ddd"/>
  <circle cx="330" cy="210" r="3" fill="#ddd"/>
  <circle cx="330" cy="270" r="3" fill="#ddd"/>
  <circle cx="330" cy="330" r="3" fill="#ddd"/>
  <circle cx="330" cy="390" r="3" fill="#ddd"/>
  <circle cx="330" cy="450" r="3" fill="#ddd"/>
  <circle cx="390" cy="30" r="3" fill="#ddd"/>
  <circle cx="390" cy="90" r="3" fill="#ddd"/>
  <circle cx="390" cy="150" r="3" fill="#ddd"/>
  <circle cx="390" cy="210" r="3" fill="#ddd"/>
  <circle cx="390" cy="270" r="3" fill="#ddd"/>
  <circle cx="390" cy="330" r="3" fill="#ddd"/>
  <circle cx="390" cy="390" r="3" fill="#ddd"/>
  <circle cx="390" cy="450" r="3" fill="#ddd"/>
  <circle cx="450" cy="30" r="3" fill="#ddd"/>
  <circle cx="450" cy="90" r="3" fill="#ddd"/>
  <circle cx="450" cy="150" r="3" fill="#ddd"/>
  <circle cx="450" cy="210" r="3" fill="#ddd"/>
  <circle cx="450" cy="270" r="3" fill="#ddd"/>
  <circle cx="450" cy="330" r="3" fill="#ddd"/>
  <circle cx="450" cy="390" r="3" fill="#ddd"/>
  <circle cx="450" cy="450" r="3" fill="#ddd"/>
  <circle cx="210" cy="270" r="5" fill="green" opacity="0.7"/>
  <text x="218" y="274" font-size="10" fill="green" font-family="sans-serif">start</text>
</svg>