<svg xmlns="http://www.w3.org/2000/svg" width="400" height="400" viewBox="0 0 400 400">
  <rect width="400" height="400" fill="white"/>
  <line x1="200" y1="200" x2="120" y2="120" stroke="black" stroke-width="4" stroke-linecap="round"/>
  <line x1="200" y1="200" x2="280" y2="120" stroke="black" stroke-width="4" stroke-linecap="round"/>
  <line x1="200" y1="200" x2="120" y2="280" stroke="black" stroke-width="4" stroke-linecap="round"/>
  <line x1="200" y1="200" x2="280" y2="280" stroke="black" stroke-width="4" stroke-linecap="round"/>
  <line x1="120" y1="120" x2="80" y2="80" stroke="black" stroke-width="3" stroke-linecap="round"/>
  <line x1="120" y1="120" x2="160" y2="80" stroke="black" stroke-width="3" stroke-linecap="round"/>
  <line x1="120" y1="120" x2="80" y2="160" stroke="black" stroke-width="3" stroke-linecap="round"/>
  <line x1="120" y1="120" x2="160" y2="160" stroke="black" stroke-width="3" stroke-linecap="round"/>
  <line x1="280" y1="120" x2="240" y2="80" stroke="black" stroke-width="3" stroke-linecap="round"/>
  <line x1="280" y1="120" x2="320" y2="80" stroke="black" stroke-width="3" stroke-linecap="round"/>
  <line x1="280" y1="120" x2="240" y2="160" stroke="black" stroke-width="3" stroke-linecap="round"/>
  <line x1="280" y1="120" x2="320" y2="160" stroke="black" stroke-width="3" stroke-linecap="round"/>
  <line x1="120" y1="280" x2="80" y2="240" stroke="black" stroke-width="3" stroke-linecap="round"/>
  <line x1="120" y1="280" x2="160" y2="240" stroke="black" stroke-width="3" stroke-linecap="round"/>
  <line x1="120" y1="280" x2="80" y2="320" stroke="black" stroke-width="3" stroke-linecap="round"/>
  <line x1="120" y1="280" x2="160" y2="320" stroke="black" stroke-width="3" stroke-linecap="round"/>
  <line x1="280" y1="280" x2="240" y2="240" stroke="black" stroke-width="3" stroke-linecap="round"/>
  <line x1="280" y1="280" x2="320" y2="240" stroke="black" stroke-width="3" stroke-linecap="round"/>
  <line x1="280" y1="280" x2="240" y2="320" stroke="black" stroke-width="3" stroke-linecap="round"/>
  <line x1="280" y1="280" x2="320" y2="320" stroke="black" stroke-width="3" stroke-linecap="round"/>
</svg>