<svg xmlns="http://www.w3.org/2000/svg" width="750" height="250" viewBox="0 0 750 250">
  <rect width="750" height="250" fill="white"/>
  <text x="125" y="15" text-anchor="middle" font-size="12" font-family="sans-serif">Step 1 dir=left</text>
  <path d="M 220 30 L 220 220 L 30 220 L 30 30" stroke="black" stroke-width="2.5" fill="none" stroke-linecap="round" stroke-linejoin="round"/>
  <text x="375" y="15" text-anchor="middle" font-size="12" font-family="sans-serif">Step 2 dir=left</text>
  <path d="M 470 30 L 406.66666666666663 30 L 406.66666666666663 93.33333333333333 L 470 93.33333333333333 L 470 156.66666666666666 L 470 220 L 406.66666666666663 220 L 406.66666666666663 156.66666666666666 L 343.3333333333333 156.66666666666666 L 343.3333333333333 220 L 280 220 L 280 156.66666666666666 L 280 93.33333333333333 L 343.3333333333333 93.33333333333333 L 343.3333333333333 30 L 280 30" stroke="black" stroke-width="2.5" fill="none" stroke-linecap="round" stroke-linejoin="round"/>
  <text x="625" y="15" text-anchor="middle" font-size="12" font-family="sans-serif">Step 3 dir=left</text>
  <path d="M 720 30 L 720 57.14285714285714 L 692.8571428571429 57.14285714285714 L 692.8571428571429 30 L 665.7142857142858 30 L 638.5714285714286 30 L 638.5714285714286 57.14285714285714 L 665.7142857142858 57.14285714285714 L 665.7142857142858 84.28571428571428 L 638.5714285714286 84.28571428571428 L 638.5714285714286 111.42857142857143 L 665.7142857142858 111.42857142857143 L 692.8571428571429 111.42857142857143 L 692.8571428571429 84.28571428571428 L 720 84.28571428571428 L 720 111.42857142857143 L 720 138.57142857142856 L 692.8571428571429 138.57142857142856 L 692.8571428571429 165.71428571428572 L 720 165.71428571428572 L 720 192.85714285714286 L 720 220 L 692.8571428571429 220 L 692.8571428571429 192.85714285714286 L 665.7142857142858 192.85714285714286 L 665.7142857142858 220 L 638.5714285714286 220 L 638.5714285714286 192.85714285714286 L 638.5714285714286 165.71428571428572 L 665.7142857142858 165.71428571428572 L 665.7142857142858 138.57142857142856 L 638.5714285714286 138.57142857142856 L 611.4285714285714 138.57142857142856 L 584.2857142857143 138.57142857142856 L 584.2857142857143 165.71428571428572 L 611.4285714285714 165.71428571428572 L 611.4285714285714 192.85714285714286 L 611.4285714285714 220 L 584.2857142857143 220 L 584.2857142857143 192.85714285714286 L 557.1428571428571 192.85714285714286 L 557.1428571428571 220 L 530 220 L 530 192.85714285714286 L 530 165.71428571428572 L 557.1428571428571 165.71428571428572 L 557.1428571428571 138.57142857142856 L 530 138.57142857142856 L 530 111.42857142857143 L 530 84.28571428571428 L 557.1428571428571 84.28571428571428 L 557.1428571428571 111.42857142857143 L 584.2857142857143 111.42857142857143 L 611.4285714285714 111.42857142857143 L 611.4285714285714 84.28571428571428 L 584.2857142857143 84.28571428571428 L 584.2857142857143 57.14285714285714 L 611.4285714285714 57.14285714285714 L 611.4285714285714 30 L 584.2857142857143 30 L 557.1428571428571 30 L 557.1428571428571 57.14285714285714 L 530 57.14285714285714 L 530 30" stroke="black" stroke-width="2.5" fill="none" stroke-linecap="round" stroke-linejoin="round"/>
</svg>