<svg xmlns="http://www.w3.org/2000/svg" width="400" height="400" viewBox="0 0 400 400">
  <rect width="400" height="400" fill="white"/>
  <line x1="40" y1="40" x2="40" y2="360" stroke="#ddd" stroke-width="0.5"/>
  <line x1="40" y1="40" x2="360" y2="40" stroke="#ddd" stroke-width="0.5"/>
  <line x1="146.66666666666669" y1="40" x2="146.66666666666669" y2="360" stroke="#ddd" stroke-width="0.5"/>
  <line x1="40" y1="146.66666666666669" x2="360" y2="146.66666666666669" stroke="#ddd" stroke-width="0.5"/>
  <line x1="253.33333333333334" y1="40" x2="253.33333333333334" y2="360" stroke="#ddd" stroke-width="0.5"/>
  <line x1="40" y1="253.33333333333334" x2="360" y2="253.33333333333334" stroke="#ddd" stroke-width="0.5"/>
  <line x1="360" y1="40" x2="360" y2="360" stroke="#ddd" stroke-width="0.5"/>
  <line x1="40" y1="360" x2="360" y2="360" stroke="#ddd" stroke-width="0.5"/>
  <path d="M 40 360 L 40 253.33333333333334 L 146.66666666666669 360 L 146.66666666666669 253.33333333333334 L 40 146.66666666666669 L 40 40 L 146.66666666666669 146.66666666666669 L 146.66666666666669 40 L 253.33333333333334 360 L 253.33333333333334 253.33333333333334 L 360 360 L 360 253.33333333333334 L 253.33333333333334 146.66666666666669 L 253.33333333333334 40 L 360 146.66666666666669 L 360 40" fill="none" stroke="black" stroke-width="3" stroke-linecap="round" stroke-linejoin="round"/>
  <circle cx="40" cy="360" r="6" fill="red"/>
  <text x="40" y="364" font-size="10" text-anchor="middle" fill="white">0</text>
  <circle cx="40" cy="253.33333333333334" r="6" fill="red"/>
  <text x="40" y="257.33333333333337" font-size="10" text-anchor="middle" fill="white">1</text>
  <circle cx="146.66666666666669" cy="360" r="6" fill="red"/>
  <text x="146.66666666666669" y="364" font-size="10" text-anchor="middle" fill="white">2</text>
  <circle cx="146.66666666666669" cy="253.33333333333334" r="6" fill="red"/>
  <text x="146.66666666666669" y="257.33333333333337" font-size="10" text-anchor="middle" fill="white">3</text>
  <circle cx="40" cy="146.66666666666669" r="6" fill="red"/>
  <text x="40" y="150.66666666666669" font-size="10" text-anchor="middle" fill="white">4</text>
  <circle cx="40" cy="40" r="6" fill="red"/>
  <text x="40" y="44" font-size="10" text-anchor="middle" fill="white">5</text>
  <circle cx="146.66666666666669" cy="146.66666666666669" r="6" fill="red"/>
  <text x="146.66666666666669" y="150.66666666666669" font-size="10" text-anchor="middle" fill="white">6</text>
  <circle cx="146.66666666666669" cy="40" r="6" fill="red"/>
  <text x="146.66666666666669" y="44" font-size="10" text-anchor="middle" fill="white">7</text>
  <circle cx="253.33333333333334" cy="360" r="6" fill="red"/>
  <text x="253.33333333333334" y="364" font-size="10" text-anchor="middle" fill="white">8</text>
  <circle cx="253.33333333333334" cy="253.33333333333334" r="6" fill="red"/>
  <text x="253.33333333333334" y="257.33333333333337" font-size="10" text-anchor="middle" fill="white">9</text>
  <circle cx="360" cy="360" r="6" fill="red"/>
  <text x="360" y="364" font-size="10" text-anchor="middle" fill="white">10</text>
  <circle cx="360" cy="253.33333333333334" r="6" fill="red"/>
  <text x="360" y="257.33333333333337" font-size="10" text-anchor="middle" fill="white">11</text>
  <circle cx="253.33333333333334" cy="146.66666666666669" r="6" fill="red"/>
  <text x="253.33333333333334" y="150.66666666666669" font-size="10" text-anchor="middle" fill="white">12</text>
  <circle cx="253.33333333333334" cy="40" r="6" fill="red"/>
  <text x="253.33333333333334" y="44" font-size="10" text-anchor="middle" fill="white">13</text>
  <circle cx="360" cy="146.66666666666669" r="6" fill="red"/>
  <text x="360" y="150.66666666666669" font-size="10" text-anchor="middle" fill="white">14</text>
  <circle cx="360" cy="40" r="6" fill="red"/>
  <text x="360" y="44" font-size="10" text-anchor="middle" fill="white">15</text>
</svg>