<svg xmlns="http://www.w3.org/2000/svg" viewBox="0 0 800 500" font-family="sans-serif" font-size="12">
  <rect width="800" height="500" fill="white"/>
  <text x="400" y="20" text-anchor="middle" font-size="16" font-weight="bold">Execution Time vs Number of Points</text>
  <line x1="80" y1="40" x2="80" y2="440" stroke="#333" stroke-width="1"/>
  <line x1="80" y1="440" x2="620" y2="440" stroke="#333" stroke-width="1"/>
  <text x="350" y="490" text-anchor="middle" font-size="13">Number of Points</text>
  <text x="15" y="240" text-anchor="middle" font-size="13" transform="rotate(-90,15,240)">Time (ms)</text>
  <line x1="188" y1="40" x2="188" y2="440" stroke="#e5e7eb" stroke-width="1"/>
  <text x="188" y="458" text-anchor="middle">200</text>
  <line x1="296" y1="40" x2="296" y2="440" stroke="#e5e7eb" stroke-width="1"/>
  <text x="296" y="458" text-anchor="middle">400</text>
  <line x1="404" y1="40" x2="404" y2="440" stroke="#e5e7eb" stroke-width="1"/>
  <text x="404" y="458" text-anchor="middle">600</text>
  <line x1="512" y1="40" x2="512" y2="440" stroke="#e5e7eb" stroke-width="1"/>
  <text x="512" y="458" text-anchor="middle">800</text>
  <line x1="620" y1="40" x2="620" y2="440" stroke="#e5e7eb" stroke-width="1"/>
  <text x="620" y="458" text-anchor="middle">1000</text>
  <line x1="80" y1="440" x2="620" y2="440" stroke="#e5e7eb" stroke-width="1"/>
  <text x="72" y="444" text-anchor="end">0μs</text>
  <line x1="80" y1="360" x2="620" y2="360" stroke="#e5e7eb" stroke-width="1"/>
  <text x="72" y="364" text-anchor="end">108.40ms</text>
  <line x1="80" y1="280" x2="620" y2="280" stroke="#e5e7eb" stroke-width="1"/>
  <text x="72" y="284" text-anchor="end">216.81ms</text>
  <line x1="80" y1="199.99999999999997" x2="620" y2="199.99999999999997" stroke="#e5e7eb" stroke-width="1"/>
  <text x="72" y="203.99999999999997" text-anchor="end">325.21ms</text>
  <line x1="80" y1="120" x2="620" y2="120" stroke="#e5e7eb" stroke-width="1"/>
  <text x="72" y="124" text-anchor="end">433.62ms</text>
  <line x1="80" y1="40" x2="620" y2="40" stroke="#e5e7eb" stroke-width="1"/>
  <text x="72" y="44" text-anchor="end">542.02ms</text>
  <path d="M107.0,440.0 L134.0,440.0 L161.0,440.0 L188.0,440.0 L215.0,440.0 L242.0,439.9 L269.0,439.9 L296.0,439.9 L323.0,439.9 L350.0,439.9 L377.0,439.9 L404.0,439.9 L431.0,439.9 L458.0,439.9 L485.0,439.9 L512.0,439.9 L539.0,439.9 L566.0,439.8 L593.0,439.8 L620.0,439.8" fill="none" stroke="#2563eb" stroke-width="2"/>
  <circle cx="107.0" cy="440.0" r="3" fill="#2563eb"/>
  <circle cx="134.0" cy="440.0" r="3" fill="#2563eb"/>
  <circle cx="161.0" cy="440.0" r="3" fill="#2563eb"/>
  <circle cx="188.0" cy="440.0" r="3" fill="#2563eb"/>
  <circle cx="215.0" cy="440.0" r="3" fill="#2563eb"/>
  <circle cx="242.0" cy="439.9" r="3" fill="#2563eb"/>
  <circle cx="269.0" cy="439.9" r="3" fill="#2563eb"/>
  <circle cx="296.0" cy="439.9" r="3" fill="#2563eb"/>
  <circle cx="323.0" cy="439.9" r="3" fill="#2563eb"/>
  <circle cx="350.0" cy="439.9" r="3" fill="#2563eb"/>
  <circle cx="377.0" cy="439.9" r="3" fill="#2563eb"/>
  <circle cx="404.0" cy="439.9" r="3" fill="#2563eb"/>
  <circle cx="431.0" cy="439.9" r="3" fill="#2563eb"/>
  <circle cx="458.0" cy="439.9" r="3" fill="#2563eb"/>
  <circle cx="485.0" cy="439.9" r="3" fill="#2563eb"/>
  <circle cx="512.0" cy="439.9" r="3" fill="#2563eb"/>
  <circle cx="539.0" cy="439.9" r="3" fill="#2563eb"/>
  <circle cx="566.0" cy="439.8" r="3" fill="#2563eb"/>
  <circle cx="593.0" cy="439.8" r="3" fill="#2563eb"/>
  <circle cx="620.0" cy="439.8" r="3" fill="#2563eb"/>
  <line x1="635" y1="55" x2="655" y2="55" stroke="#2563eb" stroke-width="2"/>
  <circle cx="645" cy="55" r="3" fill="#2563eb"/>
  <text x="663" y="59" font-size="11">Sonar</text>
  <path d="M107.0,439.4 L134.0,438.8 L161.0,438.2 L188.0,437.6 L215.0,437.2 L242.0,436.5 L269.0,436.0 L296.0,435.3 L323.0,434.6 L350.0,434.3 L377.0,433.5 L404.0,433.1 L431.0,433.0 L458.0,431.5 L485.0,431.6 L512.0,431.3 L539.0,430.3 L566.0,428.7 L593.0,428.4 L620.0,429.2" fill="none" stroke="#dc2626" stroke-width="2"/>
  <circle cx="107.0" cy="439.4" r="3" fill="#dc2626"/>
  <circle cx="134.0" cy="438.8" r="3" fill="#dc2626"/>
  <circle cx="161.0" cy="438.2" r="3" fill="#dc2626"/>
  <circle cx="188.0" cy="437.6" r="3" fill="#dc2626"/>
  <circle cx="215.0" cy="437.2" r="3" fill="#dc2626"/>
  <circle cx="242.0" cy="436.5" r="3" fill="#dc2626"/>
  <circle cx="269.0" cy="436.0" r="3" fill="#dc2626"/>
  <circle cx="296.0" cy="435.3" r="3" fill="#dc2626"/>
  <circle cx="323.0" cy="434.6" r="3" fill="#dc2626"/>
  <circle cx="350.0" cy="434.3" r="3" fill="#dc2626"/>
  <circle cx="377.0" cy="433.5" r="3" fill="#dc2626"/>
  <circle cx="404.0" cy="433.1" r="3" fill="#dc2626"/>
  <circle cx="431.0" cy="433.0" r="3" fill="#dc2626"/>
  <circle cx="458.0" cy="431.5" r="3" fill="#dc2626"/>
  <circle cx="485.0" cy="431.6" r="3" fill="#dc2626"/>
  <circle cx="512.0" cy="431.3" r="3" fill="#dc2626"/>
  <circle cx="539.0" cy="430.3" r="3" fill="#dc2626"/>
  <circle cx="566.0" cy="428.7" r="3" fill="#dc2626"/>
  <circle cx="593.0" cy="428.4" r="3" fill="#dc2626"/>
  <circle cx="620.0" cy="429.2" r="3" fill="#dc2626"/>
  <line x1="635" y1="75" x2="655" y2="75" stroke="#dc2626" stroke-width="2"/>
  <circle cx="645" cy="75" r="3" fill="#dc2626"/>
  <text x="663" y="79" font-size="11">Moore</text>
  <path d="M107.0,438.9 L134.0,438.1 L161.0,438.0 L188.0,438.6 L215.0,437.9 L242.0,437.7 L269.0,438.1 L296.0,438.5 L323.0,437.5 L350.0,437.9 L377.0,436.5 L404.0,436.2 L431.0,435.0 L458.0,434.5 L485.0,433.3 L512.0,434.5 L539.0,434.0 L566.0,432.7 L593.0,429.9 L620.0,430.6" fill="none" stroke="#16a34a" stroke-width="2"/>
  <circle cx="107.0" cy="438.9" r="3" fill="#16a34a"/>
  <circle cx="134.0" cy="438.1" r="3" fill="#16a34a"/>
  <circle cx="161.0" cy="438.0" r="3" fill="#16a34a"/>
  <circle cx="188.0" cy="438.6" r="3" fill="#16a34a"/>
  <circle cx="215.0" cy="437.9" r="3" fill="#16a34a"/>
  <circle cx="242.0" cy="437.7" r="3" fill="#16a34a"/>
  <circle cx="269.0" cy="438.1" r="3" fill="#16a34a"/>
  <circle cx="296.0" cy="438.5" r="3" fill="#16a34a"/>
  <circle cx="323.0" cy="437.5" r="3" fill="#16a34a"/>
  <circle cx="350.0" cy="437.9" r="3" fill="#16a34a"/>
  <circle cx="377.0" cy="436.5" r="3" fill="#16a34a"/>
  <circle cx="404.0" cy="436.2" r="3" fill="#16a34a"/>
  <circle cx="431.0" cy="435.0" r="3" fill="#16a34a"/>
  <circle cx="458.0" cy="434.5" r="3" fill="#16a34a"/>
  <circle cx="485.0" cy="433.3" r="3" fill="#16a34a"/>
  <circle cx="512.0" cy="434.5" r="3" fill="#16a34a"/>
  <circle cx="539.0" cy="434.0" r="3" fill="#16a34a"/>
  <circle cx="566.0" cy="432.7" r="3" fill="#16a34a"/>
  <circle cx="593.0" cy="429.9" r="3" fill="#16a34a"/>
  <circle cx="620.0" cy="430.6" r="3" fill="#16a34a"/>
  <line x1="635" y1="95" x2="655" y2="95" stroke="#16a34a" stroke-width="2"/>
  <circle cx="645" cy="95" r="3" fill="#16a34a"/>
  <text x="663" y="99" font-size="11">Sonar + 2-opt</text>
  <path d="M107.0,438.5 L134.0,434.2 L161.0,422.9 L188.0,407.4 L215.0,395.5 L242.0,378.8 L269.0,370.3 L296.0,361.6 L323.0,323.0 L350.0,300.1 L377.0,242.7 L404.0,163.0 L431.0,76.4 L458.0,152.5 L485.0,189.5 L512.0,252.2 L539.0,280.2 L566.0,304.1 L593.0,371.1 L620.0,404.1" fill="none" stroke="#9333ea" stroke-width="2"/>
  <circle cx="107.0" cy="438.5" r="3" fill="#9333ea"/>
  <circle cx="134.0" cy="434.2" r="3" fill="#9333ea"/>
  <circle cx="161.0" cy="422.9" r="3" fill="#9333ea"/>
  <circle cx="188.0" cy="407.4" r="3" fill="#9333ea"/>
  <circle cx="215.0" cy="395.5" r="3" fill="#9333ea"/>
  <circle cx="242.0" cy="378.8" r="3" fill="#9333ea"/>
  <circle cx="269.0" cy="370.3" r="3" fill="#9333ea"/>
  <circle cx="296.0" cy="361.6" r="3" fill="#9333ea"/>
  <circle cx="323.0" cy="323.0" r="3" fill="#9333ea"/>
  <circle cx="350.0" cy="300.1" r="3" fill="#9333ea"/>
  <circle cx="377.0" cy="242.7" r="3" fill="#9333ea"/>
  <circle cx="404.0" cy="163.0" r="3" fill="#9333ea"/>
  <circle cx="431.0" cy="76.4" r="3" fill="#9333ea"/>
  <circle cx="458.0" cy="152.5" r="3" fill="#9333ea"/>
  <circle cx="485.0" cy="189.5" r="3" fill="#9333ea"/>
  <circle cx="512.0" cy="252.2" r="3" fill="#9333ea"/>
  <circle cx="539.0" cy="280.2" r="3" fill="#9333ea"/>
  <circle cx="566.0" cy="304.1" r="3" fill="#9333ea"/>
  <circle cx="593.0" cy="371.1" r="3" fill="#9333ea"/>
  <circle cx="620.0" cy="404.1" r="3" fill="#9333ea"/>
  <line x1="635" y1="115" x2="655" y2="115" stroke="#9333ea" stroke-width="2"/>
  <circle cx="645" cy="115" r="3" fill="#9333ea"/>
  <text x="663" y="119" font-size="11">Moore + 2-opt</text>
  <path d="M107.0,440.0 L134.0,439.9 L161.0,439.9 L188.0,439.9 L215.0,439.9 L242.0,439.8 L269.0,439.8 L296.0,439.8 L323.0,439.7 L350.0,439.7 L377.0,439.6 L404.0,439.6 L431.0,439.5 L458.0,439.5 L485.0,439.5 L512.0,439.4 L539.0,439.4 L566.0,439.3 L593.0,439.3 L620.0,439.3" fill="none" stroke="#ea580c" stroke-width="2"/>
  <circle cx="107.0" cy="440.0" r="3" fill="#ea580c"/>
  <circle cx="134.0" cy="439.9" r="3" fill="#ea580c"/>
  <circle cx="161.0" cy="439.9" r="3" fill="#ea580c"/>
  <circle cx="188.0" cy="439.9" r="3" fill="#ea580c"/>
  <circle cx="215.0" cy="439.9" r="3" fill="#ea580c"/>
  <circle cx="242.0" cy="439.8" r="3" fill="#ea580c"/>
  <circle cx="269.0" cy="439.8" r="3" fill="#ea580c"/>
  <circle cx="296.0" cy="439.8" r="3" fill="#ea580c"/>
  <circle cx="323.0" cy="439.7" r="3" fill="#ea580c"/>
  <circle cx="350.0" cy="439.7" r="3" fill="#ea580c"/>
  <circle cx="377.0" cy="439.6" r="3" fill="#ea580c"/>
  <circle cx="404.0" cy="439.6" r="3" fill="#ea580c"/>
  <circle cx="431.0" cy="439.5" r="3" fill="#ea580c"/>
  <circle cx="458.0" cy="439.5" r="3" fill="#ea580c"/>
  <circle cx="485.0" cy="439.5" r="3" fill="#ea580c"/>
  <circle cx="512.0" cy="439.4" r="3" fill="#ea580c"/>
  <circle cx="539.0" cy="439.4" r="3" fill="#ea580c"/>
  <circle cx="566.0" cy="439.3" r="3" fill="#ea580c"/>
  <circle cx="593.0" cy="439.3" r="3" fill="#ea580c"/>
  <circle cx="620.0" cy="439.3" r="3" fill="#ea580c"/>
  <line x1="635" y1="135" x2="655" y2="135" stroke="#ea580c" stroke-width="2"/>
  <circle cx="645" cy="135" r="3" fill="#ea580c"/>
  <text x="663" y="139" font-size="11">Sonar + Zigzag</text>
  <path d="M107.0,439.4 L134.0,438.8 L161.0,438.4 L188.0,437.4 L215.0,436.6 L242.0,436.7 L269.0,436.3 L296.0,435.8 L323.0,434.8 L350.0,434.2 L377.0,434.0 L404.0,433.1 L431.0,433.3 L458.0,431.6 L485.0,431.2 L512.0,430.8 L539.0,430.3 L566.0,428.1 L593.0,428.7 L620.0,428.6" fill="none" stroke="#0891b2" stroke-width="2"/>
  <circle cx="107.0" cy="439.4" r="3" fill="#0891b2"/>
  <circle cx="134.0" cy="438.8" r="3" fill="#0891b2"/>
  <circle cx="161.0" cy="438.4" r="3" fill="#0891b2"/>
  <circle cx="188.0" cy="437.4" r="3" fill="#0891b2"/>
  <circle cx="215.0" cy="436.6" r="3" fill="#0891b2"/>
  <circle cx="242.0" cy="436.7" r="3" fill="#0891b2"/>
  <circle cx="269.0" cy="436.3" r="3" fill="#0891b2"/>
  <circle cx="296.0" cy="435.8" r="3" fill="#0891b2"/>
  <circle cx="323.0" cy="434.8" r="3" fill="#0891b2"/>
  <circle cx="350.0" cy="434.2" r="3" fill="#0891b2"/>
  <circle cx="377.0" cy="434.0" r="3" fill="#0891b2"/>
  <circle cx="404.0" cy="433.1" r="3" fill="#0891b2"/>
  <circle cx="431.0" cy="433.3" r="3" fill="#0891b2"/>
  <circle cx="458.0" cy="431.6" r="3" fill="#0891b2"/>
  <circle cx="485.0" cy="431.2" r="3" fill="#0891b2"/>
  <circle cx="512.0" cy="430.8" r="3" fill="#0891b2"/>
  <circle cx="539.0" cy="430.3" r="3" fill="#0891b2"/>
  <circle cx="566.0" cy="428.1" r="3" fill="#0891b2"/>
  <circle cx="593.0" cy="428.7" r="3" fill="#0891b2"/>
  <circle cx="620.0" cy="428.6" r="3" fill="#0891b2"/>
  <line x1="635" y1="155" x2="655" y2="155" stroke="#0891b2" stroke-width="2"/>
  <circle cx="645" cy="155" r="3" fill="#0891b2"/>
  <text x="663" y="159" font-size="11">Moore + Zigzag</text>
</svg>
