<svg xmlns="http://www.w3.org/2000/svg" viewBox="0 0 800 500" font-family="sans-serif" font-size="12">
  <rect width="800" height="500" fill="white"/>
  <text x="400" y="20" text-anchor="middle" font-size="16" font-weight="bold">Execution Time vs Number of Points</text>
  <line x1="80" y1="40" x2="80" y2="440" stroke="#333" stroke-width="1"/>
  <line x1="80" y1="440" x2="600" y2="440" stroke="#333" stroke-width="1"/>
  <text x="340" y="490" text-anchor="middle" font-size="13">Number of Points</text>
  <text x="15" y="240" text-anchor="middle" font-size="13" transform="rotate(-90,15,240)">Time (ms)</text>
  <line x1="96.25" y1="40" x2="96.25" y2="440" stroke="#e5e7eb" stroke-width="1"/>
  <text x="96.25" y="458" text-anchor="middle">500</text>
  <line x1="112.5" y1="40" x2="112.5" y2="440" stroke="#e5e7eb" stroke-width="1"/>
  <text x="112.5" y="458" text-anchor="middle">1000</text>
  <line x1="128.75" y1="40" x2="128.75" y2="440" stroke="#e5e7eb" stroke-width="1"/>
  <text x="128.75" y="458" text-anchor="middle">1500</text>
  <line x1="145" y1="40" x2="145" y2="440" stroke="#e5e7eb" stroke-width="1"/>
  <text x="145" y="458" text-anchor="middle">2000</text>
  <line x1="161.25" y1="40" x2="161.25" y2="440" stroke="#e5e7eb" stroke-width="1"/>
  <text x="161.25" y="458" text-anchor="middle">2500</text>
  <line x1="177.5" y1="40" x2="177.5" y2="440" stroke="#e5e7eb" stroke-width="1"/>
  <text x="177.5" y="458" text-anchor="middle">3000</text>
  <line x1="193.75" y1="40" x2="193.75" y2="440" stroke="#e5e7eb" stroke-width="1"/>
  <text x="193.75" y="458" text-anchor="middle">3500</text>
  <line x1="210" y1="40" x2="210" y2="440" stroke="#e5e7eb" stroke-width="1"/>
  <text x="210" y="458" text-anchor="middle">4000</text>
  <line x1="226.25" y1="40" x2="226.25" y2="440" stroke="#e5e7eb" stroke-width="1"/>
  <text x="226.25" y="458" text-anchor="middle">4500</text>
  <line x1="242.5" y1="40" x2="242.5" y2="440" stroke="#e5e7eb" stroke-width="1"/>
  <text x="242.5" y="458" text-anchor="middle">5000</text>
  <line x1="258.75" y1="40" x2="258.75" y2="440" stroke="#e5e7eb" stroke-width="1"/>
  <text x="258.75" y="458" text-anchor="middle">5500</text>
  <line x1="275" y1="40" x2="275" y2="440" stroke="#e5e7eb" stroke-width="1"/>
  <text x="275" y="458" text-anchor="middle">6000</text>
  <line x1="291.25" y1="40" x2="291.25" y2="440" stroke="#e5e7eb" stroke-width="1"/>
  <text x="291.25" y="458" text-anchor="middle">6500</text>
  <line x1="307.5" y1="40" x2="307.5" y2="440" stroke="#e5e7eb" stroke-width="1"/>
  <text x="307.5" y="458" text-anchor="middle">7000</text>
  <line x1="323.75" y1="40" x2="323.75" y2="440" stroke="#e5e7eb" stroke-width="1"/>
  <text x="323.75" y="458" text-anchor="middle">7500</text>
  <line x1="340" y1="40" x2="340" y2="440" stroke="#e5e7eb" stroke-width="1"/>
  <text x="340" y="458" text-anchor="middle">8000</text>
  <line x1="356.25" y1="40" x2="356.25" y2="440" stroke="#e5e7eb" stroke-width="1"/>
  <text x="356.25" y="458" text-anchor="middle">8500</text>
  <line x1="372.5" y1="40" x2="372.5" y2="440" stroke="#e5e7eb" stroke-width="1"/>
  <text x="372.5" y="458" text-anchor="middle">9000</text>
  <line x1="388.75" y1="40" x2="388.75" y2="440" stroke="#e5e7eb" stroke-width="1"/>
  <text x="388.75" y="458" text-anchor="middle">9500</text>
  <line x1="405" y1="40" x2="405" y2="440" stroke="#e5e7eb" stroke-width="1"/>
  <text x="405" y="458" text-anchor="middle">10000</text>
  <line x1="421.25" y1="40" x2="421.25" y2="440" stroke="#e5e7eb" stroke-width="1"/>
  <text x="421.25" y="458" text-anchor="middle">10500</text>
  <line x1="437.5" y1="40" x2="437.5" y2="440" stroke="#e5e7eb" stroke-width="1"/>
  <text x="437.5" y="458" text-anchor="middle">11000</text>
  <line x1="453.75" y1="40" x2="453.75" y2="440" stroke="#e5e7eb" stroke-width="1"/>
  <text x="453.75" y="458" text-anchor="middle">11500</text>
  <line x1="470" y1="40" x2="470" y2="440" stroke="#e5e7eb" stroke-width="1"/>
  <text x="470" y="458" text-anchor="middle">12000</text>
  <line x1="486.25" y1="40" x2="486.25" y2="440" stroke="#e5e7eb" stroke-width="1"/>
  <text x="486.25" y="458" text-anchor="middle">12500</text>
  <line x1="502.5" y1="40" x2="502.5" y2="440" stroke="#e5e7eb" stroke-width="1"/>
  <text x="502.5" y="458" text-anchor="middle">13000</text>
  <line x1="518.75" y1="40" x2="518.75" y2="440" stroke="#e5e7eb" stroke-width="1"/>
  <text x="518.75" y="458" text-anchor="middle">13500</text>
  <line x1="535" y1="40" x2="535" y2="440" stroke="#e5e7eb" stroke-width="1"/>
  <text x="535" y="458" text-anchor="middle">14000</text>
  <line x1="551.25" y1="40" x2="551.25" y2="440" stroke="#e5e7eb" stroke-width="1"/>
  <text x="551.25" y="458" text-anchor="middle">14500</text>
  <line x1="567.5" y1="40" x2="567.5" y2="440" stroke="#e5e7eb" stroke-width="1"/>
  <text x="567.5" y="458" text-anchor="middle">15000</text>
  <line x1="583.75" y1="40" x2="583.75" y2="440" stroke="#e5e7eb" stroke-width="1"/>
  <text x="583.75" y="458" text-anchor="middle">15500</text>
  <line x1="600" y1="40" x2="600" y2="440" stroke="#e5e7eb" stroke-width="1"/>
  <text x="600" y="458" text-anchor="middle">16000</text>
  <line x1="80" y1="440" x2="600" y2="440" stroke="#e5e7eb" stroke-width="1"/>
  <text x="72" y="444" text-anchor="end">0μs</text>
  <line x1="80" y1="360" x2="600" y2="360" stroke="#e5e7eb" stroke-width="1"/>
  <text x="72" y="364" text-anchor="end">8.98s</text>
  <line x1="80" y1="280" x2="600" y2="280" stroke="#e5e7eb" stroke-width="1"/>
  <text x="72" y="284" text-anchor="end">17.96s</text>
  <line x1="80" y1="200" x2="600" y2="200" stroke="#e5e7eb" stroke-width="1"/>
  <text x="72" y="204" text-anchor="end">26.95s</text>
  <line x1="80" y1="120" x2="600" y2="120" stroke="#e5e7eb" stroke-width="1"/>
  <text x="72" y="124" text-anchor="end">35.93s</text>
  <line x1="80" y1="40" x2="600" y2="40" stroke="#e5e7eb" stroke-width="1"/>
  <text x="72" y="44" text-anchor="end">44.91s</text>
  <path d="M80.1,440.0 L80.2,440.0 L80.3,440.0 L80.3,439.4" fill="none" stroke="#2563eb" stroke-width="2"/>
  <circle cx="80.1" cy="440.0" r="3" fill="#2563eb"/>
  <circle cx="80.2" cy="440.0" r="3" fill="#2563eb"/>
  <circle cx="80.3" cy="440.0" r="3" fill="#2563eb"/>
  <circle cx="80.3" cy="439.4" r="3" fill="#2563eb"/>
  <line x1="615" y1="55" x2="635" y2="55" stroke="#2563eb" stroke-width="2"/>
  <circle cx="625" cy="55" r="3" fill="#2563eb"/>
  <text x="643" y="59" font-size="11">Brute Force</text>
  <path d="M106.0,440.0 L132.0,440.0 L158.0,440.0 L184.0,440.0 L210.0,440.0 L236.0,440.0 L262.0,440.0 L288.0,440.0 L314.0,440.0 L340.0,440.0 L366.0,440.0 L392.0,440.0 L418.0,440.0 L444.0,440.0 L470.0,440.0 L496.0,440.0 L522.0,440.0 L548.0,439.9 L574.0,439.9 L600.0,439.9" fill="none" stroke="#dc2626" stroke-width="2"/>
  <circle cx="106.0" cy="440.0" r="3" fill="#dc2626"/>
  <circle cx="132.0" cy="440.0" r="3" fill="#dc2626"/>
  <circle cx="158.0" cy="440.0" r="3" fill="#dc2626"/>
  <circle cx="184.0" cy="440.0" r="3" fill="#dc2626"/>
  <circle cx="210.0" cy="440.0" r="3" fill="#dc2626"/>
  <circle cx="236.0" cy="440.0" r="3" fill="#dc2626"/>
  <circle cx="262.0" cy="440.0" r="3" fill="#dc2626"/>
  <circle cx="288.0" cy="440.0" r="3" fill="#dc2626"/>
  <circle cx="314.0" cy="440.0" r="3" fill="#dc2626"/>
  <circle cx="340.0" cy="440.0" r="3" fill="#dc2626"/>
  <circle cx="366.0" cy="440.0" r="3" fill="#dc2626"/>
  <circle cx="392.0" cy="440.0" r="3" fill="#dc2626"/>
  <circle cx="418.0" cy="440.0" r="3" fill="#dc2626"/>
  <circle cx="444.0" cy="440.0" r="3" fill="#dc2626"/>
  <circle cx="470.0" cy="440.0" r="3" fill="#dc2626"/>
  <circle cx="496.0" cy="440.0" r="3" fill="#dc2626"/>
  <circle cx="522.0" cy="440.0" r="3" fill="#dc2626"/>
  <circle cx="548.0" cy="439.9" r="3" fill="#dc2626"/>
  <circle cx="574.0" cy="439.9" r="3" fill="#dc2626"/>
  <circle cx="600.0" cy="439.9" r="3" fill="#dc2626"/>
  <line x1="615" y1="75" x2="635" y2="75" stroke="#dc2626" stroke-width="2"/>
  <circle cx="625" cy="75" r="3" fill="#dc2626"/>
  <text x="643" y="79" font-size="11">Sonar</text>
  <path d="M106.0,437.7 L132.0,435.5 L158.0,433.3 L184.0,431.0 L210.0,428.7 L236.0,426.5 L262.0,424.3 L288.0,422.0 L314.0,419.8 L340.0,417.6 L366.0,415.3 L392.0,412.9 L418.0,410.8 L444.0,408.6 L470.0,406.4 L496.0,404.1 L522.0,401.9 L548.0,399.6 L574.0,397.4 L600.0,395.1" fill="none" stroke="#16a34a" stroke-width="2"/>
  <circle cx="106.0" cy="437.7" r="3" fill="#16a34a"/>
  <circle cx="132.0" cy="435.5" r="3" fill="#16a34a"/>
  <circle cx="158.0" cy="433.3" r="3" fill="#16a34a"/>
  <circle cx="184.0" cy="431.0" r="3" fill="#16a34a"/>
  <circle cx="210.0" cy="428.7" r="3" fill="#16a34a"/>
  <circle cx="236.0" cy="426.5" r="3" fill="#16a34a"/>
  <circle cx="262.0" cy="424.3" r="3" fill="#16a34a"/>
  <circle cx="288.0" cy="422.0" r="3" fill="#16a34a"/>
  <circle cx="314.0" cy="419.8" r="3" fill="#16a34a"/>
  <circle cx="340.0" cy="417.6" r="3" fill="#16a34a"/>
  <circle cx="366.0" cy="415.3" r="3" fill="#16a34a"/>
  <circle cx="392.0" cy="412.9" r="3" fill="#16a34a"/>
  <circle cx="418.0" cy="410.8" r="3" fill="#16a34a"/>
  <circle cx="444.0" cy="408.6" r="3" fill="#16a34a"/>
  <circle cx="470.0" cy="406.4" r="3" fill="#16a34a"/>
  <circle cx="496.0" cy="404.1" r="3" fill="#16a34a"/>
  <circle cx="522.0" cy="401.9" r="3" fill="#16a34a"/>
  <circle cx="548.0" cy="399.6" r="3" fill="#16a34a"/>
  <circle cx="574.0" cy="397.4" r="3" fill="#16a34a"/>
  <circle cx="600.0" cy="395.1" r="3" fill="#16a34a"/>
  <line x1="615" y1="95" x2="635" y2="95" stroke="#16a34a" stroke-width="2"/>
  <circle cx="625" cy="95" r="3" fill="#16a34a"/>
  <text x="643" y="99" font-size="11">Moore</text>
  <path d="M91.4,440.0 L102.8,440.0 L114.1,440.0 L125.5,439.9 L136.9,440.0 L148.3,439.9 L159.6,439.8 L171.0,439.8 L182.4,439.9 L193.8,439.8 L205.1,439.9 L216.5,439.8 L227.9,439.9 L239.3,439.8 L250.6,439.7 L262.0,439.5 L273.4,439.7 L284.8,439.7 L296.1,439.7 L307.5,439.5 L318.9,439.6 L330.3,439.5" fill="none" stroke="#9333ea" stroke-width="2"/>
  <circle cx="91.4" cy="440.0" r="3" fill="#9333ea"/>
  <circle cx="102.8" cy="440.0" r="3" fill="#9333ea"/>
  <circle cx="114.1" cy="440.0" r="3" fill="#9333ea"/>
  <circle cx="125.5" cy="439.9" r="3" fill="#9333ea"/>
  <circle cx="136.9" cy="440.0" r="3" fill="#9333ea"/>
  <circle cx="148.3" cy="439.9" r="3" fill="#9333ea"/>
  <circle cx="159.6" cy="439.8" r="3" fill="#9333ea"/>
  <circle cx="171.0" cy="439.8" r="3" fill="#9333ea"/>
  <circle cx="182.4" cy="439.9" r="3" fill="#9333ea"/>
  <circle cx="193.8" cy="439.8" r="3" fill="#9333ea"/>
  <circle cx="205.1" cy="439.9" r="3" fill="#9333ea"/>
  <circle cx="216.5" cy="439.8" r="3" fill="#9333ea"/>
  <circle cx="227.9" cy="439.9" r="3" fill="#9333ea"/>
  <circle cx="239.3" cy="439.8" r="3" fill="#9333ea"/>
  <circle cx="250.6" cy="439.7" r="3" fill="#9333ea"/>
  <circle cx="262.0" cy="439.5" r="3" fill="#9333ea"/>
  <circle cx="273.4" cy="439.7" r="3" fill="#9333ea"/>
  <circle cx="284.8" cy="439.7" r="3" fill="#9333ea"/>
  <circle cx="296.1" cy="439.7" r="3" fill="#9333ea"/>
  <circle cx="307.5" cy="439.5" r="3" fill="#9333ea"/>
  <circle cx="318.9" cy="439.6" r="3" fill="#9333ea"/>
  <circle cx="330.3" cy="439.5" r="3" fill="#9333ea"/>
  <line x1="615" y1="115" x2="635" y2="115" stroke="#9333ea" stroke-width="2"/>
  <circle cx="625" cy="115" r="3" fill="#9333ea"/>
  <text x="643" y="119" font-size="11">Sonar + 2-opt</text>
  <path d="M81.6,439.8 L83.3,439.6 L84.9,439.3 L86.5,439.1 L88.1,438.8 L89.8,438.6 L91.4,438.4 L93.0,438.1 L94.6,437.9 L96.3,437.5 L97.9,437.2 L99.5,437.1 L101.1,436.7 L102.8,436.6 L104.4,436.4 L106.0,435.9 L107.6,435.6 L109.3,435.4 L110.9,435.6 L112.5,435.1 L114.1,434.5" fill="none" stroke="#ea580c" stroke-width="2"/>
  <circle cx="81.6" cy="439.8" r="3" fill="#ea580c"/>
  <circle cx="83.3" cy="439.6" r="3" fill="#ea580c"/>
  <circle cx="84.9" cy="439.3" r="3" fill="#ea580c"/>
  <circle cx="86.5" cy="439.1" r="3" fill="#ea580c"/>
  <circle cx="88.1" cy="438.8" r="3" fill="#ea580c"/>
  <circle cx="89.8" cy="438.6" r="3" fill="#ea580c"/>
  <circle cx="91.4" cy="438.4" r="3" fill="#ea580c"/>
  <circle cx="93.0" cy="438.1" r="3" fill="#ea580c"/>
  <circle cx="94.6" cy="437.9" r="3" fill="#ea580c"/>
  <circle cx="96.3" cy="437.5" r="3" fill="#ea580c"/>
  <circle cx="97.9" cy="437.2" r="3" fill="#ea580c"/>
  <circle cx="99.5" cy="437.1" r="3" fill="#ea580c"/>
  <circle cx="101.1" cy="436.7" r="3" fill="#ea580c"/>
  <circle cx="102.8" cy="436.6" r="3" fill="#ea580c"/>
  <circle cx="104.4" cy="436.4" r="3" fill="#ea580c"/>
  <circle cx="106.0" cy="435.9" r="3" fill="#ea580c"/>
  <circle cx="107.6" cy="435.6" r="3" fill="#ea580c"/>
  <circle cx="109.3" cy="435.4" r="3" fill="#ea580c"/>
  <circle cx="110.9" cy="435.6" r="3" fill="#ea580c"/>
  <circle cx="112.5" cy="435.1" r="3" fill="#ea580c"/>
  <circle cx="114.1" cy="434.5" r="3" fill="#ea580c"/>
  <line x1="615" y1="135" x2="635" y2="135" stroke="#ea580c" stroke-width="2"/>
  <circle cx="625" cy="135" r="3" fill="#ea580c"/>
  <text x="643" y="139" font-size="11">Moore + 2-opt</text>
  <path d="M96.3,440.0 L112.5,440.0 L128.8,440.0 L145.0,440.0 L161.3,440.0 L177.5,440.0 L193.8,439.9 L210.0,439.9 L226.3,439.9 L242.5,439.9 L258.8,439.9 L275.0,439.9 L291.3,439.9 L307.5,439.8 L323.8,439.8 L340.0,439.8 L356.3,439.8 L372.5,439.7 L388.8,439.6 L405.0,439.6" fill="none" stroke="#0891b2" stroke-width="2"/>
  <circle cx="96.3" cy="440.0" r="3" fill="#0891b2"/>
  <circle cx="112.5" cy="440.0" r="3" fill="#0891b2"/>
  <circle cx="128.8" cy="440.0" r="3" fill="#0891b2"/>
  <circle cx="145.0" cy="440.0" r="3" fill="#0891b2"/>
  <circle cx="161.3" cy="440.0" r="3" fill="#0891b2"/>
  <circle cx="177.5" cy="440.0" r="3" fill="#0891b2"/>
  <circle cx="193.8" cy="439.9" r="3" fill="#0891b2"/>
  <circle cx="210.0" cy="439.9" r="3" fill="#0891b2"/>
  <circle cx="226.3" cy="439.9" r="3" fill="#0891b2"/>
  <circle cx="242.5" cy="439.9" r="3" fill="#0891b2"/>
  <circle cx="258.8" cy="439.9" r="3" fill="#0891b2"/>
  <circle cx="275.0" cy="439.9" r="3" fill="#0891b2"/>
  <circle cx="291.3" cy="439.9" r="3" fill="#0891b2"/>
  <circle cx="307.5" cy="439.8" r="3" fill="#0891b2"/>
  <circle cx="323.8" cy="439.8" r="3" fill="#0891b2"/>
  <circle cx="340.0" cy="439.8" r="3" fill="#0891b2"/>
  <circle cx="356.3" cy="439.8" r="3" fill="#0891b2"/>
  <circle cx="372.5" cy="439.7" r="3" fill="#0891b2"/>
  <circle cx="388.8" cy="439.6" r="3" fill="#0891b2"/>
  <circle cx="405.0" cy="439.6" r="3" fill="#0891b2"/>
  <line x1="615" y1="155" x2="635" y2="155" stroke="#0891b2" stroke-width="2"/>
  <circle cx="625" cy="155" r="3" fill="#0891b2"/>
  <text x="643" y="159" font-size="11">Sonar + Zigzag</text>
  <path d="M81.6,439.8 L83.3,439.7 L84.9,439.6 L86.5,439.4 L88.1,439.3 L89.8,439.1 L91.4,439.0 L93.0,438.9 L94.6,438.7 L96.3,438.6 L97.9,438.4 L99.5,438.3 L101.1,438.2 L102.8,438.0 L104.4,437.9 L106.0,437.7 L107.6,437.6 L109.3,437.4 L110.9,437.3 L112.5,437.1" fill="none" stroke="#d97706" stroke-width="2"/>
  <circle cx="81.6" cy="439.8" r="3" fill="#d97706"/>
  <circle cx="83.3" cy="439.7" r="3" fill="#d97706"/>
  <circle cx="84.9" cy="439.6" r="3" fill="#d97706"/>
  <circle cx="86.5" cy="439.4" r="3" fill="#d97706"/>
  <circle cx="88.1" cy="439.3" r="3" fill="#d97706"/>
  <circle cx="89.8" cy="439.1" r="3" fill="#d97706"/>
  <circle cx="91.4" cy="439.0" r="3" fill="#d97706"/>
  <circle cx="93.0" cy="438.9" r="3" fill="#d97706"/>
  <circle cx="94.6" cy="438.7" r="3" fill="#d97706"/>
  <circle cx="96.3" cy="438.6" r="3" fill="#d97706"/>
  <circle cx="97.9" cy="438.4" r="3" fill="#d97706"/>
  <circle cx="99.5" cy="438.3" r="3" fill="#d97706"/>
  <circle cx="101.1" cy="438.2" r="3" fill="#d97706"/>
  <circle cx="102.8" cy="438.0" r="3" fill="#d97706"/>
  <circle cx="104.4" cy="437.9" r="3" fill="#d97706"/>
  <circle cx="106.0" cy="437.7" r="3" fill="#d97706"/>
  <circle cx="107.6" cy="437.6" r="3" fill="#d97706"/>
  <circle cx="109.3" cy="437.4" r="3" fill="#d97706"/>
  <circle cx="110.9" cy="437.3" r="3" fill="#d97706"/>
  <circle cx="112.5" cy="437.1" r="3" fill="#d97706"/>
  <line x1="615" y1="175" x2="635" y2="175" stroke="#d97706" stroke-width="2"/>
  <circle cx="625" cy="175" r="3" fill="#d97706"/>
  <text x="643" y="179" font-size="11">Moore + Zigzag</text>
  <path d="M81.6,440.0 L83.3,439.8 L84.9,439.3 L86.5,438.0 L88.1,435.0 L89.8,430.9 L91.4,424.8 L93.0,415.5 L94.6,404.5 L96.3,387.6 L97.9,372.5 L99.5,346.0 L101.1,331.1 L102.8,283.3 L104.4,273.1 L106.0,202.7 L107.6,155.4 L109.3,76.4" fill="none" stroke="#be185d" stroke-width="2"/>
  <circle cx="81.6" cy="440.0" r="3" fill="#be185d"/>
  <circle cx="83.3" cy="439.8" r="3" fill="#be185d"/>
  <circle cx="84.9" cy="439.3" r="3" fill="#be185d"/>
  <circle cx="86.5" cy="438.0" r="3" fill="#be185d"/>
  <circle cx="88.1" cy="435.0" r="3" fill="#be185d"/>
  <circle cx="89.8" cy="430.9" r="3" fill="#be185d"/>
  <circle cx="91.4" cy="424.8" r="3" fill="#be185d"/>
  <circle cx="93.0" cy="415.5" r="3" fill="#be185d"/>
  <circle cx="94.6" cy="404.5" r="3" fill="#be185d"/>
  <circle cx="96.3" cy="387.6" r="3" fill="#be185d"/>
  <circle cx="97.9" cy="372.5" r="3" fill="#be185d"/>
  <circle cx="99.5" cy="346.0" r="3" fill="#be185d"/>
  <circle cx="101.1" cy="331.1" r="3" fill="#be185d"/>
  <circle cx="102.8" cy="283.3" r="3" fill="#be185d"/>
  <circle cx="104.4" cy="273.1" r="3" fill="#be185d"/>
  <circle cx="106.0" cy="202.7" r="3" fill="#be185d"/>
  <circle cx="107.6" cy="155.4" r="3" fill="#be185d"/>
  <circle cx="109.3" cy="76.4" r="3" fill="#be185d"/>
  <line x1="615" y1="195" x2="635" y2="195" stroke="#be185d" stroke-width="2"/>
  <circle cx="625" cy="195" r="3" fill="#be185d"/>
  <text x="643" y="199" font-size="11">Sonar + Combined</text>
  <path d="M81.6,439.8 L83.3,439.7 L84.9,439.3 L86.5,439.0" fill="none" stroke="#059669" stroke-width="2"/>
  <circle cx="81.6" cy="439.8" r="3" fill="#059669"/>
  <circle cx="83.3" cy="439.7" r="3" fill="#059669"/>
  <circle cx="84.9" cy="439.3" r="3" fill="#059669"/>
  <circle cx="86.5" cy="439.0" r="3" fill="#059669"/>
  <line x1="615" y1="215" x2="635" y2="215" stroke="#059669" stroke-width="2"/>
  <circle cx="625" cy="215" r="3" fill="#059669"/>
  <text x="643" y="219" font-size="11">Moore + Combined</text>
</svg>
