<svg xmlns="http://www.w3.org/2000/svg" viewBox="0 0 800 500" font-family="sans-serif" font-size="12">
  <rect width="800" height="500" fill="white"/>
  <text x="400" y="20" text-anchor="middle" font-size="16" font-weight="bold">Tour Distance vs Number of Points</text>
  <line x1="80" y1="40" x2="80" y2="440" stroke="#333" stroke-width="1"/>
  <line x1="80" y1="440" x2="620" y2="440" stroke="#333" stroke-width="1"/>
  <text x="350" y="490" text-anchor="middle" font-size="13">Number of Points</text>
  <text x="15" y="240" text-anchor="middle" font-size="13" transform="rotate(-90,15,240)">Tour Distance</text>
  <line x1="188" y1="40" x2="188" y2="440" stroke="#e5e7eb" stroke-width="1"/>
  <text x="188" y="458" text-anchor="middle">200</text>
  <line x1="296" y1="40" x2="296" y2="440" stroke="#e5e7eb" stroke-width="1"/>
  <text x="296" y="458" text-anchor="middle">400</text>
  <line x1="404" y1="40" x2="404" y2="440" stroke="#e5e7eb" stroke-width="1"/>
  <text x="404" y="458" text-anchor="middle">600</text>
  <line x1="512" y1="40" x2="512" y2="440" stroke="#e5e7eb" stroke-width="1"/>
  <text x="512" y="458" text-anchor="middle">800</text>
  <line x1="620" y1="40" x2="620" y2="440" stroke="#e5e7eb" stroke-width="1"/>
  <text x="620" y="458" text-anchor="middle">1000</text>
  <line x1="80" y1="440" x2="620" y2="440" stroke="#e5e7eb" stroke-width="1"/>
  <text x="72" y="444" text-anchor="end">0</text>
  <line x1="80" y1="360" x2="620" y2="360" stroke="#e5e7eb" stroke-width="1"/>
  <text x="72" y="364" text-anchor="end">1022</text>
  <line x1="80" y1="280" x2="620" y2="280" stroke="#e5e7eb" stroke-width="1"/>
  <text x="72" y="284" text-anchor="end">2044</text>
  <line x1="80" y1="199.99999999999997" x2="620" y2="199.99999999999997" stroke="#e5e7eb" stroke-width="1"/>
  <text x="72" y="203.99999999999997" text-anchor="end">3066</text>
  <line x1="80" y1="120" x2="620" y2="120" stroke="#e5e7eb" stroke-width="1"/>
  <text x="72" y="124" text-anchor="end">4088</text>
  <line x1="80" y1="40" x2="620" y2="40" stroke="#e5e7eb" stroke-width="1"/>
  <text x="72" y="44" text-anchor="end">5109</text>
  <path d="M107.0,418.4 L134.0,400.0 L161.0,380.2 L188.0,360.5 L215.0,337.8 L242.0,318.8 L269.0,306.0 L296.0,280.4 L323.0,263.8 L350.0,247.3 L377.0,229.2 L404.0,213.1 L431.0,192.7 L458.0,178.5 L485.0,158.8 L512.0,137.5 L539.0,121.4 L566.0,105.0 L593.0,90.8 L620.0,76.4" fill="none" stroke="#2563eb" stroke-width="2"/>
  <circle cx="107.0" cy="418.4" r="3" fill="#2563eb"/>
  <circle cx="134.0" cy="400.0" r="3" fill="#2563eb"/>
  <circle cx="161.0" cy="380.2" r="3" fill="#2563eb"/>
  <circle cx="188.0" cy="360.5" r="3" fill="#2563eb"/>
  <circle cx="215.0" cy="337.8" r="3" fill="#2563eb"/>
  <circle cx="242.0" cy="318.8" r="3" fill="#2563eb"/>
  <circle cx="269.0" cy="306.0" r="3" fill="#2563eb"/>
  <circle cx="296.0" cy="280.4" r="3" fill="#2563eb"/>
  <circle cx="323.0" cy="263.8" r="3" fill="#2563eb"/>
  <circle cx="350.0" cy="247.3" r="3" fill="#2563eb"/>
  <circle cx="377.0" cy="229.2" r="3" fill="#2563eb"/>
  <circle cx="404.0" cy="213.1" r="3" fill="#2563eb"/>
  <circle cx="431.0" cy="192.7" r="3" fill="#2563eb"/>
  <circle cx="458.0" cy="178.5" r="3" fill="#2563eb"/>
  <circle cx="485.0" cy="158.8" r="3" fill="#2563eb"/>
  <circle cx="512.0" cy="137.5" r="3" fill="#2563eb"/>
  <circle cx="539.0" cy="121.4" r="3" fill="#2563eb"/>
  <circle cx="566.0" cy="105.0" r="3" fill="#2563eb"/>
  <circle cx="593.0" cy="90.8" r="3" fill="#2563eb"/>
  <circle cx="620.0" cy="76.4" r="3" fill="#2563eb"/>
  <line x1="635" y1="55" x2="655" y2="55" stroke="#2563eb" stroke-width="2"/>
  <circle cx="645" cy="55" r="3" fill="#2563eb"/>
  <text x="663" y="59" font-size="11">Sonar</text>
  <path d="M107.0,423.2 L134.0,415.4 L161.0,410.0 L188.0,404.9 L215.0,400.7 L242.0,396.9 L269.0,393.4 L296.0,389.8 L323.0,386.9 L350.0,383.9 L377.0,381.6 L404.0,378.3 L431.0,375.7 L458.0,373.5 L485.0,371.0 L512.0,369.0 L539.0,366.9 L566.0,364.5 L593.0,362.6 L620.0,360.7" fill="none" stroke="#dc2626" stroke-width="2"/>
  <circle cx="107.0" cy="423.2" r="3" fill="#dc2626"/>
  <circle cx="134.0" cy="415.4" r="3" fill="#dc2626"/>
  <circle cx="161.0" cy="410.0" r="3" fill="#dc2626"/>
  <circle cx="188.0" cy="404.9" r="3" fill="#dc2626"/>
  <circle cx="215.0" cy="400.7" r="3" fill="#dc2626"/>
  <circle cx="242.0" cy="396.9" r="3" fill="#dc2626"/>
  <circle cx="269.0" cy="393.4" r="3" fill="#dc2626"/>
  <circle cx="296.0" cy="389.8" r="3" fill="#dc2626"/>
  <circle cx="323.0" cy="386.9" r="3" fill="#dc2626"/>
  <circle cx="350.0" cy="383.9" r="3" fill="#dc2626"/>
  <circle cx="377.0" cy="381.6" r="3" fill="#dc2626"/>
  <circle cx="404.0" cy="378.3" r="3" fill="#dc2626"/>
  <circle cx="431.0" cy="375.7" r="3" fill="#dc2626"/>
  <circle cx="458.0" cy="373.5" r="3" fill="#dc2626"/>
  <circle cx="485.0" cy="371.0" r="3" fill="#dc2626"/>
  <circle cx="512.0" cy="369.0" r="3" fill="#dc2626"/>
  <circle cx="539.0" cy="366.9" r="3" fill="#dc2626"/>
  <circle cx="566.0" cy="364.5" r="3" fill="#dc2626"/>
  <circle cx="593.0" cy="362.6" r="3" fill="#dc2626"/>
  <circle cx="620.0" cy="360.7" r="3" fill="#dc2626"/>
  <line x1="635" y1="75" x2="655" y2="75" stroke="#dc2626" stroke-width="2"/>
  <circle cx="645" cy="75" r="3" fill="#dc2626"/>
  <text x="663" y="79" font-size="11">Moore</text>
  <path d="M107.0,425.1 L134.0,407.8 L161.0,390.3 L188.0,367.2 L215.0,348.6 L242.0,329.4 L269.0,311.3 L296.0,293.0 L323.0,270.4 L350.0,251.9 L377.0,236.6 L404.0,217.7 L431.0,197.9 L458.0,182.6 L485.0,166.6 L512.0,145.8 L539.0,131.0 L566.0,115.3 L593.0,103.1 L620.0,86.6" fill="none" stroke="#16a34a" stroke-width="2"/>
  <circle cx="107.0" cy="425.1" r="3" fill="#16a34a"/>
  <circle cx="134.0" cy="407.8" r="3" fill="#16a34a"/>
  <circle cx="161.0" cy="390.3" r="3" fill="#16a34a"/>
  <circle cx="188.0" cy="367.2" r="3" fill="#16a34a"/>
  <circle cx="215.0" cy="348.6" r="3" fill="#16a34a"/>
  <circle cx="242.0" cy="329.4" r="3" fill="#16a34a"/>
  <circle cx="269.0" cy="311.3" r="3" fill="#16a34a"/>
  <circle cx="296.0" cy="293.0" r="3" fill="#16a34a"/>
  <circle cx="323.0" cy="270.4" r="3" fill="#16a34a"/>
  <circle cx="350.0" cy="251.9" r="3" fill="#16a34a"/>
  <circle cx="377.0" cy="236.6" r="3" fill="#16a34a"/>
  <circle cx="404.0" cy="217.7" r="3" fill="#16a34a"/>
  <circle cx="431.0" cy="197.9" r="3" fill="#16a34a"/>
  <circle cx="458.0" cy="182.6" r="3" fill="#16a34a"/>
  <circle cx="485.0" cy="166.6" r="3" fill="#16a34a"/>
  <circle cx="512.0" cy="145.8" r="3" fill="#16a34a"/>
  <circle cx="539.0" cy="131.0" r="3" fill="#16a34a"/>
  <circle cx="566.0" cy="115.3" r="3" fill="#16a34a"/>
  <circle cx="593.0" cy="103.1" r="3" fill="#16a34a"/>
  <circle cx="620.0" cy="86.6" r="3" fill="#16a34a"/>
  <line x1="635" y1="95" x2="655" y2="95" stroke="#16a34a" stroke-width="2"/>
  <circle cx="645" cy="95" r="3" fill="#16a34a"/>
  <text x="663" y="99" font-size="11">Sonar + 2-opt</text>
  <path d="M107.0,424.3 L134.0,417.9 L161.0,412.6 L188.0,408.4 L215.0,403.6 L242.0,400.2 L269.0,396.1 L296.0,392.7 L323.0,389.2 L350.0,386.7 L377.0,383.5 L404.0,380.9 L431.0,378.4 L458.0,375.3 L485.0,372.6 L512.0,370.0 L539.0,367.5 L566.0,365.1 L593.0,362.8 L620.0,360.7" fill="none" stroke="#9333ea" stroke-width="2"/>
  <circle cx="107.0" cy="424.3" r="3" fill="#9333ea"/>
  <circle cx="134.0" cy="417.9" r="3" fill="#9333ea"/>
  <circle cx="161.0" cy="412.6" r="3" fill="#9333ea"/>
  <circle cx="188.0" cy="408.4" r="3" fill="#9333ea"/>
  <circle cx="215.0" cy="403.6" r="3" fill="#9333ea"/>
  <circle cx="242.0" cy="400.2" r="3" fill="#9333ea"/>
  <circle cx="269.0" cy="396.1" r="3" fill="#9333ea"/>
  <circle cx="296.0" cy="392.7" r="3" fill="#9333ea"/>
  <circle cx="323.0" cy="389.2" r="3" fill="#9333ea"/>
  <circle cx="350.0" cy="386.7" r="3" fill="#9333ea"/>
  <circle cx="377.0" cy="383.5" r="3" fill="#9333ea"/>
  <circle cx="404.0" cy="380.9" r="3" fill="#9333ea"/>
  <circle cx="431.0" cy="378.4" r="3" fill="#9333ea"/>
  <circle cx="458.0" cy="375.3" r="3" fill="#9333ea"/>
  <circle cx="485.0" cy="372.6" r="3" fill="#9333ea"/>
  <circle cx="512.0" cy="370.0" r="3" fill="#9333ea"/>
  <circle cx="539.0" cy="367.5" r="3" fill="#9333ea"/>
  <circle cx="566.0" cy="365.1" r="3" fill="#9333ea"/>
  <circle cx="593.0" cy="362.8" r="3" fill="#9333ea"/>
  <circle cx="620.0" cy="360.7" r="3" fill="#9333ea"/>
  <line x1="635" y1="115" x2="655" y2="115" stroke="#9333ea" stroke-width="2"/>
  <circle cx="645" cy="115" r="3" fill="#9333ea"/>
  <text x="663" y="119" font-size="11">Moore + 2-opt</text>
  <path d="M107.0,421.7 L134.0,407.8 L161.0,392.8 L188.0,378.7 L215.0,366.2 L242.0,350.4 L269.0,338.4 L296.0,325.8 L323.0,308.8 L350.0,298.4 L377.0,281.5 L404.0,269.6 L431.0,255.6 L458.0,241.5 L485.0,224.2 L512.0,216.0 L539.0,198.7 L566.0,189.3 L593.0,179.1 L620.0,165.1" fill="none" stroke="#ea580c" stroke-width="2"/>
  <circle cx="107.0" cy="421.7" r="3" fill="#ea580c"/>
  <circle cx="134.0" cy="407.8" r="3" fill="#ea580c"/>
  <circle cx="161.0" cy="392.8" r="3" fill="#ea580c"/>
  <circle cx="188.0" cy="378.7" r="3" fill="#ea580c"/>
  <circle cx="215.0" cy="366.2" r="3" fill="#ea580c"/>
  <circle cx="242.0" cy="350.4" r="3" fill="#ea580c"/>
  <circle cx="269.0" cy="338.4" r="3" fill="#ea580c"/>
  <circle cx="296.0" cy="325.8" r="3" fill="#ea580c"/>
  <circle cx="323.0" cy="308.8" r="3" fill="#ea580c"/>
  <circle cx="350.0" cy="298.4" r="3" fill="#ea580c"/>
  <circle cx="377.0" cy="281.5" r="3" fill="#ea580c"/>
  <circle cx="404.0" cy="269.6" r="3" fill="#ea580c"/>
  <circle cx="431.0" cy="255.6" r="3" fill="#ea580c"/>
  <circle cx="458.0" cy="241.5" r="3" fill="#ea580c"/>
  <circle cx="485.0" cy="224.2" r="3" fill="#ea580c"/>
  <circle cx="512.0" cy="216.0" r="3" fill="#ea580c"/>
  <circle cx="539.0" cy="198.7" r="3" fill="#ea580c"/>
  <circle cx="566.0" cy="189.3" r="3" fill="#ea580c"/>
  <circle cx="593.0" cy="179.1" r="3" fill="#ea580c"/>
  <circle cx="620.0" cy="165.1" r="3" fill="#ea580c"/>
  <line x1="635" y1="135" x2="655" y2="135" stroke="#ea580c" stroke-width="2"/>
  <circle cx="645" cy="135" r="3" fill="#ea580c"/>
  <text x="663" y="139" font-size="11">Sonar + Zigzag</text>
  <path d="M107.0,423.4 L134.0,416.9 L161.0,411.2 L188.0,406.4 L215.0,402.6 L242.0,398.6 L269.0,395.1 L296.0,391.7 L323.0,388.7 L350.0,385.9 L377.0,382.6 L404.0,380.0 L431.0,377.4 L458.0,374.3 L485.0,371.8 L512.0,369.5 L539.0,367.0 L566.0,365.0 L593.0,362.7 L620.0,360.8" fill="none" stroke="#0891b2" stroke-width="2"/>
  <circle cx="107.0" cy="423.4" r="3" fill="#0891b2"/>
  <circle cx="134.0" cy="416.9" r="3" fill="#0891b2"/>
  <circle cx="161.0" cy="411.2" r="3" fill="#0891b2"/>
  <circle cx="188.0" cy="406.4" r="3" fill="#0891b2"/>
  <circle cx="215.0" cy="402.6" r="3" fill="#0891b2"/>
  <circle cx="242.0" cy="398.6" r="3" fill="#0891b2"/>
  <circle cx="269.0" cy="395.1" r="3" fill="#0891b2"/>
  <circle cx="296.0" cy="391.7" r="3" fill="#0891b2"/>
  <circle cx="323.0" cy="388.7" r="3" fill="#0891b2"/>
  <circle cx="350.0" cy="385.9" r="3" fill="#0891b2"/>
  <circle cx="377.0" cy="382.6" r="3" fill="#0891b2"/>
  <circle cx="404.0" cy="380.0" r="3" fill="#0891b2"/>
  <circle cx="431.0" cy="377.4" r="3" fill="#0891b2"/>
  <circle cx="458.0" cy="374.3" r="3" fill="#0891b2"/>
  <circle cx="485.0" cy="371.8" r="3" fill="#0891b2"/>
  <circle cx="512.0" cy="369.5" r="3" fill="#0891b2"/>
  <circle cx="539.0" cy="367.0" r="3" fill="#0891b2"/>
  <circle cx="566.0" cy="365.0" r="3" fill="#0891b2"/>
  <circle cx="593.0" cy="362.7" r="3" fill="#0891b2"/>
  <circle cx="620.0" cy="360.8" r="3" fill="#0891b2"/>
  <line x1="635" y1="155" x2="655" y2="155" stroke="#0891b2" stroke-width="2"/>
  <circle cx="645" cy="155" r="3" fill="#0891b2"/>
  <text x="663" y="159" font-size="11">Moore + Zigzag</text>
</svg>
