<svg xmlns="http://www.w3.org/2000/svg" viewBox="0 0 800 500" font-family="sans-serif" font-size="12">
  <rect width="800" height="500" fill="white"/>
  <text x="400" y="20" text-anchor="middle" font-size="16" font-weight="bold">Tour Distance vs Number of Points</text>
  <line x1="80" y1="40" x2="80" y2="440" stroke="#333" stroke-width="1"/>
  <line x1="80" y1="440" x2="620" y2="440" stroke="#333" stroke-width="1"/>
  <text x="350" y="490" text-anchor="middle" font-size="13">Number of Points</text>
  <text x="15" y="240" text-anchor="middle" font-size="13" transform="rotate(-90,15,240)">Tour Distance</text>
  <line x1="188" y1="40" x2="188" y2="440" stroke="#e5e7eb" stroke-width="1"/>
  <text x="188" y="458" text-anchor="middle">200</text>
  <line x1="296" y1="40" x2="296" y2="440" stroke="#e5e7eb" stroke-width="1"/>
  <text x="296" y="458" text-anchor="middle">400</text>
  <line x1="404" y1="40" x2="404" y2="440" stroke="#e5e7eb" stroke-width="1"/>
  <text x="404" y="458" text-anchor="middle">600</text>
  <line x1="512" y1="40" x2="512" y2="440" stroke="#e5e7eb" stroke-width="1"/>
  <text x="512" y="458" text-anchor="middle">800</text>
  <line x1="620" y1="40" x2="620" y2="440" stroke="#e5e7eb" stroke-width="1"/>
  <text x="620" y="458" text-anchor="middle">1000</text>
  <line x1="80" y1="440" x2="620" y2="440" stroke="#e5e7eb" stroke-width="1"/>
  <text x="72" y="444" text-anchor="end">0</text>
  <line x1="80" y1="360" x2="620" y2="360" stroke="#e5e7eb" stroke-width="1"/>
  <text x="72" y="364" text-anchor="end">1019</text>
  <line x1="80" y1="280" x2="620" y2="280" stroke="#e5e7eb" stroke-width="1"/>
  <text x="72" y="284" text-anchor="end">2038</text>
  <line x1="80" y1="200" x2="620" y2="200" stroke="#e5e7eb" stroke-width="1"/>
  <text x="72" y="204" text-anchor="end">3057</text>
  <line x1="80" y1="120" x2="620" y2="120" stroke="#e5e7eb" stroke-width="1"/>
  <text x="72" y="124" text-anchor="end">4077</text>
  <line x1="80" y1="40" x2="620" y2="40" stroke="#e5e7eb" stroke-width="1"/>
  <text x="72" y="44" text-anchor="end">5096</text>
  <path d="M107.0,416.4 L134.0,399.1 L161.0,380.1 L188.0,360.3 L215.0,340.6 L242.0,321.3 L269.0,301.6 L296.0,285.0 L323.0,264.3 L350.0,245.3 L377.0,228.9 L404.0,204.7 L431.0,189.0 L458.0,173.7 L485.0,153.4 L512.0,138.5 L539.0,122.2 L566.0,105.7 L593.0,87.3 L620.0,76.4" fill="none" stroke="#2563eb" stroke-width="2"/>
  <circle cx="107.0" cy="416.4" r="3" fill="#2563eb"/>
  <circle cx="134.0" cy="399.1" r="3" fill="#2563eb"/>
  <circle cx="161.0" cy="380.1" r="3" fill="#2563eb"/>
  <circle cx="188.0" cy="360.3" r="3" fill="#2563eb"/>
  <circle cx="215.0" cy="340.6" r="3" fill="#2563eb"/>
  <circle cx="242.0" cy="321.3" r="3" fill="#2563eb"/>
  <circle cx="269.0" cy="301.6" r="3" fill="#2563eb"/>
  <circle cx="296.0" cy="285.0" r="3" fill="#2563eb"/>
  <circle cx="323.0" cy="264.3" r="3" fill="#2563eb"/>
  <circle cx="350.0" cy="245.3" r="3" fill="#2563eb"/>
  <circle cx="377.0" cy="228.9" r="3" fill="#2563eb"/>
  <circle cx="404.0" cy="204.7" r="3" fill="#2563eb"/>
  <circle cx="431.0" cy="189.0" r="3" fill="#2563eb"/>
  <circle cx="458.0" cy="173.7" r="3" fill="#2563eb"/>
  <circle cx="485.0" cy="153.4" r="3" fill="#2563eb"/>
  <circle cx="512.0" cy="138.5" r="3" fill="#2563eb"/>
  <circle cx="539.0" cy="122.2" r="3" fill="#2563eb"/>
  <circle cx="566.0" cy="105.7" r="3" fill="#2563eb"/>
  <circle cx="593.0" cy="87.3" r="3" fill="#2563eb"/>
  <circle cx="620.0" cy="76.4" r="3" fill="#2563eb"/>
  <line x1="635" y1="55" x2="655" y2="55" stroke="#2563eb" stroke-width="2"/>
  <circle cx="645" cy="55" r="3" fill="#2563eb"/>
  <text x="663" y="59" font-size="11">Sonar</text>
  <path d="M107.0,422.6 L134.0,415.4 L161.0,409.7 L188.0,405.1 L215.0,400.4 L242.0,396.9 L269.0,393.0 L296.0,389.8 L323.0,386.7 L350.0,384.5 L377.0,381.1 L404.0,378.5 L431.0,375.7 L458.0,373.2 L485.0,370.8 L512.0,368.5 L539.0,366.6 L566.0,364.4 L593.0,362.4 L620.0,360.5" fill="none" stroke="#dc2626" stroke-width="2"/>
  <circle cx="107.0" cy="422.6" r="3" fill="#dc2626"/>
  <circle cx="134.0" cy="415.4" r="3" fill="#dc2626"/>
  <circle cx="161.0" cy="409.7" r="3" fill="#dc2626"/>
  <circle cx="188.0" cy="405.1" r="3" fill="#dc2626"/>
  <circle cx="215.0" cy="400.4" r="3" fill="#dc2626"/>
  <circle cx="242.0" cy="396.9" r="3" fill="#dc2626"/>
  <circle cx="269.0" cy="393.0" r="3" fill="#dc2626"/>
  <circle cx="296.0" cy="389.8" r="3" fill="#dc2626"/>
  <circle cx="323.0" cy="386.7" r="3" fill="#dc2626"/>
  <circle cx="350.0" cy="384.5" r="3" fill="#dc2626"/>
  <circle cx="377.0" cy="381.1" r="3" fill="#dc2626"/>
  <circle cx="404.0" cy="378.5" r="3" fill="#dc2626"/>
  <circle cx="431.0" cy="375.7" r="3" fill="#dc2626"/>
  <circle cx="458.0" cy="373.2" r="3" fill="#dc2626"/>
  <circle cx="485.0" cy="370.8" r="3" fill="#dc2626"/>
  <circle cx="512.0" cy="368.5" r="3" fill="#dc2626"/>
  <circle cx="539.0" cy="366.6" r="3" fill="#dc2626"/>
  <circle cx="566.0" cy="364.4" r="3" fill="#dc2626"/>
  <circle cx="593.0" cy="362.4" r="3" fill="#dc2626"/>
  <circle cx="620.0" cy="360.5" r="3" fill="#dc2626"/>
  <line x1="635" y1="75" x2="655" y2="75" stroke="#dc2626" stroke-width="2"/>
  <circle cx="645" cy="75" r="3" fill="#dc2626"/>
  <text x="663" y="79" font-size="11">Moore</text>
  <path d="M107.0,424.5 L134.0,408.8 L161.0,387.9 L188.0,368.9 L215.0,344.0 L242.0,328.9 L269.0,308.1 L296.0,293.4 L323.0,272.4 L350.0,254.4 L377.0,233.6 L404.0,214.4 L431.0,200.5 L458.0,182.7 L485.0,161.9 L512.0,146.3 L539.0,128.4 L566.0,115.0 L593.0,99.0 L620.0,82.4" fill="none" stroke="#16a34a" stroke-width="2"/>
  <circle cx="107.0" cy="424.5" r="3" fill="#16a34a"/>
  <circle cx="134.0" cy="408.8" r="3" fill="#16a34a"/>
  <circle cx="161.0" cy="387.9" r="3" fill="#16a34a"/>
  <circle cx="188.0" cy="368.9" r="3" fill="#16a34a"/>
  <circle cx="215.0" cy="344.0" r="3" fill="#16a34a"/>
  <circle cx="242.0" cy="328.9" r="3" fill="#16a34a"/>
  <circle cx="269.0" cy="308.1" r="3" fill="#16a34a"/>
  <circle cx="296.0" cy="293.4" r="3" fill="#16a34a"/>
  <circle cx="323.0" cy="272.4" r="3" fill="#16a34a"/>
  <circle cx="350.0" cy="254.4" r="3" fill="#16a34a"/>
  <circle cx="377.0" cy="233.6" r="3" fill="#16a34a"/>
  <circle cx="404.0" cy="214.4" r="3" fill="#16a34a"/>
  <circle cx="431.0" cy="200.5" r="3" fill="#16a34a"/>
  <circle cx="458.0" cy="182.7" r="3" fill="#16a34a"/>
  <circle cx="485.0" cy="161.9" r="3" fill="#16a34a"/>
  <circle cx="512.0" cy="146.3" r="3" fill="#16a34a"/>
  <circle cx="539.0" cy="128.4" r="3" fill="#16a34a"/>
  <circle cx="566.0" cy="115.0" r="3" fill="#16a34a"/>
  <circle cx="593.0" cy="99.0" r="3" fill="#16a34a"/>
  <circle cx="620.0" cy="82.4" r="3" fill="#16a34a"/>
  <line x1="635" y1="95" x2="655" y2="95" stroke="#16a34a" stroke-width="2"/>
  <circle cx="645" cy="95" r="3" fill="#16a34a"/>
  <text x="663" y="99" font-size="11">Sonar + 2-opt</text>
  <path d="M107.0,424.9 L134.0,417.8 L161.0,413.1 L188.0,408.1 L215.0,403.9 L242.0,399.6 L269.0,395.8 L296.0,393.0 L323.0,389.7 L350.0,386.4 L377.0,383.3 L404.0,380.7 L431.0,377.9 L458.0,375.0 L485.0,372.5 L512.0,369.8 L539.0,367.0 L566.0,364.7 L593.0,362.5 L620.0,360.5" fill="none" stroke="#9333ea" stroke-width="2"/>
  <circle cx="107.0" cy="424.9" r="3" fill="#9333ea"/>
  <circle cx="134.0" cy="417.8" r="3" fill="#9333ea"/>
  <circle cx="161.0" cy="413.1" r="3" fill="#9333ea"/>
  <circle cx="188.0" cy="408.1" r="3" fill="#9333ea"/>
  <circle cx="215.0" cy="403.9" r="3" fill="#9333ea"/>
  <circle cx="242.0" cy="399.6" r="3" fill="#9333ea"/>
  <circle cx="269.0" cy="395.8" r="3" fill="#9333ea"/>
  <circle cx="296.0" cy="393.0" r="3" fill="#9333ea"/>
  <circle cx="323.0" cy="389.7" r="3" fill="#9333ea"/>
  <circle cx="350.0" cy="386.4" r="3" fill="#9333ea"/>
  <circle cx="377.0" cy="383.3" r="3" fill="#9333ea"/>
  <circle cx="404.0" cy="380.7" r="3" fill="#9333ea"/>
  <circle cx="431.0" cy="377.9" r="3" fill="#9333ea"/>
  <circle cx="458.0" cy="375.0" r="3" fill="#9333ea"/>
  <circle cx="485.0" cy="372.5" r="3" fill="#9333ea"/>
  <circle cx="512.0" cy="369.8" r="3" fill="#9333ea"/>
  <circle cx="539.0" cy="367.0" r="3" fill="#9333ea"/>
  <circle cx="566.0" cy="364.7" r="3" fill="#9333ea"/>
  <circle cx="593.0" cy="362.5" r="3" fill="#9333ea"/>
  <circle cx="620.0" cy="360.5" r="3" fill="#9333ea"/>
  <line x1="635" y1="115" x2="655" y2="115" stroke="#9333ea" stroke-width="2"/>
  <circle cx="645" cy="115" r="3" fill="#9333ea"/>
  <text x="663" y="119" font-size="11">Moore + 2-opt</text>
  <path d="M107.0,421.5 L134.0,408.0 L161.0,392.6 L188.0,379.1 L215.0,365.4 L242.0,353.9 L269.0,336.3 L296.0,322.3 L323.0,310.6 L350.0,293.7 L377.0,282.3 L404.0,266.6 L431.0,251.7 L458.0,243.6 L485.0,226.2 L512.0,214.1 L539.0,200.8 L566.0,188.3 L593.0,177.1 L620.0,165.4" fill="none" stroke="#ea580c" stroke-width="2"/>
  <circle cx="107.0" cy="421.5" r="3" fill="#ea580c"/>
  <circle cx="134.0" cy="408.0" r="3" fill="#ea580c"/>
  <circle cx="161.0" cy="392.6" r="3" fill="#ea580c"/>
  <circle cx="188.0" cy="379.1" r="3" fill="#ea580c"/>
  <circle cx="215.0" cy="365.4" r="3" fill="#ea580c"/>
  <circle cx="242.0" cy="353.9" r="3" fill="#ea580c"/>
  <circle cx="269.0" cy="336.3" r="3" fill="#ea580c"/>
  <circle cx="296.0" cy="322.3" r="3" fill="#ea580c"/>
  <circle cx="323.0" cy="310.6" r="3" fill="#ea580c"/>
  <circle cx="350.0" cy="293.7" r="3" fill="#ea580c"/>
  <circle cx="377.0" cy="282.3" r="3" fill="#ea580c"/>
  <circle cx="404.0" cy="266.6" r="3" fill="#ea580c"/>
  <circle cx="431.0" cy="251.7" r="3" fill="#ea580c"/>
  <circle cx="458.0" cy="243.6" r="3" fill="#ea580c"/>
  <circle cx="485.0" cy="226.2" r="3" fill="#ea580c"/>
  <circle cx="512.0" cy="214.1" r="3" fill="#ea580c"/>
  <circle cx="539.0" cy="200.8" r="3" fill="#ea580c"/>
  <circle cx="566.0" cy="188.3" r="3" fill="#ea580c"/>
  <circle cx="593.0" cy="177.1" r="3" fill="#ea580c"/>
  <circle cx="620.0" cy="165.4" r="3" fill="#ea580c"/>
  <line x1="635" y1="135" x2="655" y2="135" stroke="#ea580c" stroke-width="2"/>
  <circle cx="645" cy="135" r="3" fill="#ea580c"/>
  <text x="663" y="139" font-size="11">Sonar + Zigzag</text>
  <path d="M107.0,423.3 L134.0,416.3 L161.0,410.9 L188.0,406.2 L215.0,402.0 L242.0,398.1 L269.0,394.8 L296.0,391.9 L323.0,388.1 L350.0,385.7 L377.0,382.4 L404.0,380.1 L431.0,377.2 L458.0,374.6 L485.0,371.8 L512.0,369.1 L539.0,367.1 L566.0,364.6 L593.0,362.5 L620.0,360.5" fill="none" stroke="#0891b2" stroke-width="2"/>
  <circle cx="107.0" cy="423.3" r="3" fill="#0891b2"/>
  <circle cx="134.0" cy="416.3" r="3" fill="#0891b2"/>
  <circle cx="161.0" cy="410.9" r="3" fill="#0891b2"/>
  <circle cx="188.0" cy="406.2" r="3" fill="#0891b2"/>
  <circle cx="215.0" cy="402.0" r="3" fill="#0891b2"/>
  <circle cx="242.0" cy="398.1" r="3" fill="#0891b2"/>
  <circle cx="269.0" cy="394.8" r="3" fill="#0891b2"/>
  <circle cx="296.0" cy="391.9" r="3" fill="#0891b2"/>
  <circle cx="323.0" cy="388.1" r="3" fill="#0891b2"/>
  <circle cx="350.0" cy="385.7" r="3" fill="#0891b2"/>
  <circle cx="377.0" cy="382.4" r="3" fill="#0891b2"/>
  <circle cx="404.0" cy="380.1" r="3" fill="#0891b2"/>
  <circle cx="431.0" cy="377.2" r="3" fill="#0891b2"/>
  <circle cx="458.0" cy="374.6" r="3" fill="#0891b2"/>
  <circle cx="485.0" cy="371.8" r="3" fill="#0891b2"/>
  <circle cx="512.0" cy="369.1" r="3" fill="#0891b2"/>
  <circle cx="539.0" cy="367.1" r="3" fill="#0891b2"/>
  <circle cx="566.0" cy="364.6" r="3" fill="#0891b2"/>
  <circle cx="593.0" cy="362.5" r="3" fill="#0891b2"/>
  <circle cx="620.0" cy="360.5" r="3" fill="#0891b2"/>
  <line x1="635" y1="155" x2="655" y2="155" stroke="#0891b2" stroke-width="2"/>
  <circle cx="645" cy="155" r="3" fill="#0891b2"/>
  <text x="663" y="159" font-size="11">Moore + Zigzag</text>
</svg>
